<svg width="2564" height="700" viewBox="0 0 2564 700" fill="none" xmlns="http://www.w3.org/2000/svg">
<path d="M1021.08 545V164.155H1195.18C1230 164.155 1259.93 169.777 1284.95 181.021C1310.34 192.265 1329.93 208.587 1343.71 229.987C1357.5 251.024 1364.39 276.051 1364.39 305.068C1364.39 333.722 1357.5 358.567 1343.71 379.605C1329.93 400.642 1310.34 416.964 1284.95 428.57C1259.93 439.814 1230 445.436 1195.18 445.436H1080.93L1128.81 398.647V545H1021.08ZM1128.81 410.072L1080.93 360.562H1188.66C1211.14 360.562 1227.83 355.666 1238.71 345.873C1249.95 336.08 1255.58 322.478 1255.58 305.068C1255.58 287.295 1249.95 273.512 1238.71 263.719C1227.83 253.926 1211.14 249.029 1188.66 249.029H1080.93L1128.81 199.52V410.072Z" fill="white"/>
<path d="M1541.37 549.897C1517.44 549.897 1495.85 545.181 1476.63 535.751C1457.77 526.321 1442.9 511.631 1432.02 491.682C1421.5 471.37 1416.24 445.799 1416.24 414.969V250.117H1519.61V398.103C1519.61 420.953 1523.78 437.275 1532.13 447.069C1540.83 456.862 1552.98 461.758 1568.58 461.758C1578.73 461.758 1587.98 459.401 1596.33 454.685C1604.67 449.97 1611.38 442.535 1616.46 432.379C1621.53 421.86 1624.07 408.44 1624.07 392.118V250.117H1727.44V545H1628.97V461.758L1648.01 485.153C1637.86 506.916 1623.17 523.237 1603.94 534.119C1584.72 544.637 1563.86 549.897 1541.37 549.897Z" fill="white"/>
<path d="M1794.03 545V141.305H1897.4V545H1794.03Z" fill="white"/>
<path d="M2071.76 549.897C2046.73 549.897 2022.25 546.995 1998.31 541.192C1974.74 535.388 1955.69 528.134 1941.19 519.429L1972.2 448.701C1985.98 457.043 2002.12 463.753 2020.62 468.831C2039.12 473.546 2057.25 475.904 2075.02 475.904C2092.43 475.904 2104.4 474.09 2110.93 470.463C2117.82 466.836 2121.27 461.94 2121.27 455.774C2121.27 449.97 2118.01 445.799 2111.48 443.26C2105.31 440.358 2096.97 438.182 2086.45 436.731C2076.29 435.28 2065.05 433.648 2052.72 431.835C2040.39 430.021 2027.87 427.664 2015.18 424.762C2002.85 421.498 1991.42 416.782 1980.9 410.616C1970.75 404.088 1962.59 395.382 1956.42 384.501C1950.25 373.62 1947.17 359.837 1947.17 343.152C1947.17 324.291 1952.61 307.607 1963.49 293.099C1974.74 278.227 1991.06 266.621 2012.46 258.278C2033.86 249.573 2059.97 245.221 2090.8 245.221C2111.48 245.221 2132.33 247.397 2153.37 251.75C2174.77 255.739 2192.72 261.906 2207.23 270.248L2176.22 340.432C2161.71 332.09 2147.2 326.468 2132.7 323.566C2118.19 320.302 2104.4 318.669 2091.35 318.669C2073.94 318.669 2061.6 320.664 2054.35 324.654C2047.46 328.644 2044.01 333.541 2044.01 339.344C2044.01 345.147 2047.1 349.681 2053.26 352.945C2059.43 355.847 2067.59 358.205 2077.75 360.018C2088.26 361.469 2099.69 363.101 2112.02 364.915C2124.35 366.366 2136.69 368.723 2149.02 371.988C2161.71 375.252 2173.14 380.149 2183.29 386.677C2193.81 392.844 2202.15 401.367 2208.32 412.248C2214.49 422.767 2217.57 436.369 2217.57 453.053C2217.57 471.189 2211.95 487.511 2200.7 502.019C2189.82 516.527 2173.5 528.134 2151.74 536.839C2130.34 545.544 2103.68 549.897 2071.76 549.897Z" fill="white"/>
<path d="M2416.63 549.897C2381.81 549.897 2351.34 543.368 2325.23 530.31C2299.47 516.89 2279.34 498.755 2264.83 475.904C2250.69 452.691 2243.62 426.394 2243.62 397.015C2243.62 367.635 2250.51 341.52 2264.29 318.669C2278.44 295.456 2297.84 277.502 2322.51 264.807C2347.17 251.75 2374.92 245.221 2405.75 245.221C2434.76 245.221 2461.24 251.206 2485.18 263.175C2509.12 274.782 2528.16 292.01 2542.31 314.861C2556.45 337.712 2563.53 365.459 2563.53 398.103C2563.53 401.73 2563.34 405.901 2562.98 410.616C2562.62 415.331 2562.26 419.684 2561.89 423.674H2328.49V369.267H2506.94L2467.77 384.501C2468.13 371.081 2465.59 359.474 2460.15 349.681C2455.08 339.888 2447.82 332.271 2438.39 326.83C2429.32 321.39 2418.62 318.669 2406.29 318.669C2393.96 318.669 2383.08 321.39 2373.65 326.83C2364.58 332.271 2357.51 340.069 2352.43 350.225C2347.35 360.018 2344.81 371.625 2344.81 385.045V400.823C2344.81 415.331 2347.71 427.845 2353.52 438.364C2359.68 448.882 2368.39 457.043 2379.63 462.846C2390.88 468.287 2404.3 471.007 2419.89 471.007C2434.4 471.007 2446.73 469.012 2456.89 465.023C2467.41 460.67 2477.75 454.141 2487.9 445.436L2542.31 502.019C2528.16 517.615 2510.75 529.585 2490.08 537.927C2469.4 545.907 2444.92 549.897 2416.63 549.897Z" fill="white"/>
<path fill-rule="evenodd" clip-rule="evenodd" d="M294.143 77.2469C332.805 66.4691 373.863 60.3448 416.411 60.3448C646.389 60.3448 832.822 239.266 832.822 364.874C832.822 490.482 646.389 592.308 416.411 592.308C186.434 592.308 0 490.482 0 364.874C0 278.755 87.6373 167.575 216.86 106.18L176.673 10.2872L224.06 0L294.143 77.2469ZM352.883 351.16C352.883 393.845 318.316 428.448 275.675 428.448C233.035 428.448 198.468 393.845 198.468 351.16C198.468 308.476 233.035 273.873 275.675 273.873C318.316 273.873 352.883 308.476 352.883 351.16ZM473.451 319.047C468.982 328.827 466.492 339.703 466.492 351.16C466.492 393.845 501.059 428.448 543.699 428.448C586.34 428.448 620.907 393.845 620.907 351.16C620.907 324.993 607.916 301.862 588.037 287.879L473.451 319.047Z" fill="#77E2D1"/>
<path d="M154.415 622.712C154.415 665.397 119.848 700 77.2076 700C34.567 700 0 665.397 0 622.712C0 580.027 34.567 545.424 77.2076 545.424C119.848 545.424 154.415 580.027 154.415 622.712Z" fill="#77E2D1"/>
<path d="M833 622.712C833 665.397 798.433 700 755.792 700C713.152 700 678.585 665.397 678.585 622.712C678.585 580.027 713.152 545.424 755.792 545.424C798.433 545.424 833 580.027 833 622.712Z" fill="#77E2D1"/>
<path d="M253.185 601.592C262.046 607.626 307.097 619.695 416.411 619.695C525.725 619.695 570.776 607.626 579.637 601.592C564.076 650.981 464.336 662.71 416.411 662.401C368.486 662.71 268.746 650.981 253.185 601.592Z" fill="#77E2D1"/>
</svg>
