<svg width="3574" height="3000" viewBox="0 0 3574 3000" fill="none" xmlns="http://www.w3.org/2000/svg">
<path fill-rule="evenodd" clip-rule="evenodd" d="M1261.89 331.058C1427.75 284.867 1603.89 258.621 1786.43 258.621C2773.05 258.621 3572.86 1025.43 3572.86 1563.75C3572.86 2102.07 2773.05 2538.46 1786.43 2538.46C799.811 2538.46 0 2102.07 0 1563.75C0 1194.66 375.969 718.178 930.342 455.058L757.939 44.0878L961.23 0L1261.89 331.058ZM1513.89 1504.97C1513.89 1687.91 1365.59 1836.21 1182.66 1836.21C999.732 1836.21 851.438 1687.91 851.438 1504.97C851.438 1322.04 999.732 1173.74 1182.66 1173.74C1365.59 1173.74 1513.89 1322.04 1513.89 1504.97ZM2031.13 1367.34C2011.96 1409.26 2001.28 1455.87 2001.28 1504.97C2001.28 1687.91 2149.57 1836.21 2332.5 1836.21C2515.43 1836.21 2663.73 1687.91 2663.73 1504.97C2663.73 1392.83 2607.99 1293.69 2522.71 1233.77L2031.13 1367.34Z" fill="black"/>
<path d="M662.451 2668.77C662.451 2851.7 514.156 3000 331.225 3000C148.295 3000 0 2851.7 0 2668.77C0 2485.83 148.295 2337.53 331.225 2337.53C514.156 2337.53 662.451 2485.83 662.451 2668.77Z" fill="black"/>
<path d="M3573.62 2668.77C3573.62 2851.7 3425.32 3000 3242.39 3000C3059.46 3000 2911.17 2851.7 2911.17 2668.77C2911.17 2485.83 3059.46 2337.53 3242.39 2337.53C3425.32 2337.53 3573.62 2485.83 3573.62 2668.77Z" fill="black"/>
<path d="M1086.18 2578.25C1124.19 2604.11 1317.46 2655.84 1786.43 2655.84C2255.39 2655.84 2448.66 2604.11 2486.68 2578.25C2419.92 2789.92 1992.03 2840.19 1786.43 2838.86C1580.83 2840.19 1152.94 2789.92 1086.18 2578.25Z" fill="black"/>
</svg>
